PathFileType	4	(X/Y/Z)	C:/Users/beibeiliu/ov580/test_trc/User2\sequence.23_training_dense_right.trc
DataRate	CameraRate	NumFrames	NumMarkers	Units	OrigDataRate	OrigDataStartFrame	OrigNumFrames
120	120	20	19	mm	120	193	257
Frame#	Time	ThumbCMC			ThumbMCP			ThumbIP			ThumbTip			IndexMCP			IndexPIP			IndexTip			MiddleMCP			MiddlePIP			MiddleTip			RingMCP			RingPIP			RingTip			PinkyMCP			PinkyPIP			PinkyTip			BackHand1			BackHand2			BackHand3	
		X0	Y0	Z0	X1	Y1	Z1	X2	Y2	Z2	X3	Y3	Z3	X4	Y4	Z4	X5	Y5	Z5	X6	Y6	Z6	X7	Y7	Z7	X8	Y8	Z8	X9	Y9	Z9	X10	Y10	Z10	X11	Y11	Z11	X12	Y12	Z12	X13	Y13	Z13	X14	Y14	Z14	X15	Y15	Z15	X16	Y16	Z16	X17	Y17	Z17	X18	Y18	Z18	
192	1.6	118.128	-22.072	50.1954	87.2355	-16.8422	27.1793	59.1017	-34.6705	11.1739	37.3985	-41.6888	2.24766	84.3467	-60.9944	-11.4464	61.818	-62.2318	-23.708	34.6943	-59.2265	-41.3448	63.5065	-82.5385	2.57189	36.7928	-78.1795	-12.2511	9.57847	-76.7965	-27.1759	45.9496	-68.6135	28.5813	32.1388	-45.1242	40.6174	54.7562	-18.8748	59.2869	45.7398	-72.9725	48.8959	39.9849	-41.5048	61.2883	62.5308	-27.7769	76.6483	102.318	-89.0468	58.9575	123.574	-79.6315	82.4178	132.788	-61.0151	53.1034	
193	1.60833	121.526	-24.379	53.0167	89.4445	-21.7519	25.2934	61.8592	-29.7013	11.289	38.773	-41.7114	1.52742	86.3077	-64.3663	-9.07364	63.4125	-61.9499	-26.0232	36.5312	-57.6732	-42.8078	63.1059	-80.3751	1.70488	39.4116	-76.7116	-10.164	10.6318	-73.7243	-24.4953	48.6945	-71.5454	31.1802	36.7563	-39.3688	38.5262	57.8599	-16.9197	59.4565	44.2615	-75.1464	54.4028	41.7676	-38.4264	62.331	68.2334	-26.9154	76.1961	99.3476	-94.1617	58.6315	123.318	-84.1467	88.3827	132.656	-64.8075	53.6942	
194	1.61667	124.877	-25.5053	48.458	93.4618	-21.0282	23.6293	62.8507	-32.3888	7.5422	41.5045	-41.1805	2.87297	81.9827	-68.1631	-10.8066	61.8367	-63.276	-27.9029	37.0233	-61.3692	-39.0847	60.0895	-82.3803	2.91876	34.1546	-77.4978	-8.30454	8.47282	-73.0713	-22.9825	47.4646	-67.5357	31.1831	36.8375	-39.4358	40.326	57.2215	-17.8759	59.6864	44.949	-68.7253	49.1435	42.1365	-39.6571	60.7236	69.7611	-26.827	69.2327	98.4325	-91.8496	57.9712	123.122	-85.5078	85.664	132.299	-68.7854	49.639	
195	1.625	125.497	-31.188	47.0163	95.6894	-25.2214	24.0232	66.2778	-31.5827	9.96633	43.0965	-42.6802	4.79492	82.1187	-68.1474	-11.4825	63.0449	-63.1435	-29.3544	37.9823	-57.6007	-45.9707	62.0271	-80.5791	1.01763	34.8012	-74.4132	-10.7041	7.92166	-71.1699	-20.0036	45.9458	-64.9547	31.9641	38.3487	-36.8448	38.4758	62.3971	-15.4361	57.0766	43.2616	-66.511	50.2955	44.333	-35.7479	60.6387	77.2519	-25.7593	68.3126	100.083	-89.419	59.619	120.597	-84.706	86.421	131.002	-70.7713	52.2907	
196	1.63333	128.346	-32.0037	47.1602	98.667	-26.3922	23.0652	68.6195	-32.0757	9.31899	44.3072	-38.1698	0.406874	82.6507	-69.3892	-13.1361	63.2234	-63.3549	-28.5219	40.7748	-58.0199	-45.4521	59.0287	-80.1197	2.50671	32.9378	-73.4266	-10.1902	4.19678	-65.9518	-23.8905	47.9733	-63.3253	28.2251	39.2554	-32.8287	38.0379	64.4964	-14.59	56.4881	46.3652	-64.015	49.1351	50.6985	-29.6443	59.3686	76.6102	-23.3835	71.5566	94.3346	-94.6522	61.444	119.729	-84.8958	90.3831	129.132	-73.7767	52.2914	
197	1.64167	131.284	-33.2149	47.6142	101.15	-27	19.7034	70.3997	-32.4221	4.88212	47.9842	-35.877	1.93912	84.0658	-69.9218	-10.6318	61.0818	-63.6623	-29.8099	40.0868	-58.5951	-41.4816	63.234	-79.6835	3.94757	37.0831	-71.0094	-9.10616	3.76184	-61.6427	-23.2883	49.3379	-60.7573	27.4894	42.3553	-28.9229	37.3873	68.177	-12.5507	51.1426	43.497	-62.7743	53.021	53.115	-27.1676	57.4695	81.1833	-26.2907	66.5994	93.2816	-90.9027	60.8988	121.51	-83.1018	88.7297	132.08	-75.4921	50.0863	
198	1.65	131.848	-35.085	47.3759	106.431	-25.3524	23.2856	73.2931	-31.5095	5.0471	46.9221	-36.0087	-3.70276	87.3957	-69.8924	-11.1249	61.9761	-63.392	-29.0386	40.5262	-55.2717	-47.9111	58.5405	-79.6118	6.18611	35.5205	-68.0544	-13.1076	7.40467	-59.672	-25.465	48.2619	-60.3307	29.9685	44.2713	-26.0174	34.6248	69.7455	-12.2432	48.5438	43.9356	-58.5824	50.5873	54.4282	-25.2221	57.6136	81.6229	-23.9753	67.4782	93.9686	-89.7431	62.9269	118.612	-85.9695	84.7385	129.358	-76.0464	53.5301	
199	1.65833	130.378	-37.1721	44.611	103.981	-27.0474	17.9745	72.3348	-34.1726	5.1738	48.9995	-36.7133	-0.976057	82.3571	-69.4633	-11.8175	67.354	-61.6552	-30.4394	43.0992	-55.6071	-44.2375	59.2026	-79.1009	3.21924	37.7945	-68.4887	-11.7505	5.74504	-58.3276	-23.876	48.2161	-59.145	29.1078	46.4712	-26.0272	31.8171	72.7312	-11.4515	52.7822	44.5509	-59.9454	51.741	55.131	-24.2771	55.7571	84.1561	-24.84	65.8129	90.7227	-91.7401	61.5312	118.909	-85.0936	88.0446	133.08	-76.2637	49.5791	
200	1.66667	131.671	-34.2161	46.7704	106.575	-23.4856	22.8753	72.5761	-32.0026	4.86257	49.503	-35.0649	-2.39228	87.5945	-67.7578	-12.3866	65.4715	-61.1683	-30.8388	43.4733	-54.416	-45.1997	59.5446	-78.1412	3.21958	36.5899	-69.4376	-10.7288	8.2967	-60.4162	-24.4793	47.7923	-59.0852	28.8808	45.1586	-26.5119	36.3225	73.1379	-11.4597	55.9938	43.6423	-60.4961	51.259	55.3039	-25.7393	54.3877	83.9246	-23.5606	66.987	96.939	-90.9659	58.1704	119.295	-85.8231	90.4402	131.063	-76.234	50.9211	
201	1.675	133.154	-28.9028	48.27	103.096	-22.3352	21.1271	74.3627	-28.4041	6.38479	48.9983	-35.5635	-1.53251	89.6714	-65.0377	-12.269	65.6433	-60.0771	-30.2924	44.7004	-52.8977	-45.6984	62.4636	-78.1379	3.5237	40.4199	-68.8397	-15.5022	8.76522	-62.0242	-29.0794	49.6584	-62.5899	29.9891	41.2683	-31.2033	37.0002	69.4677	-11.3119	52.8816	46.4107	-64.0795	50.0462	48.9293	-29.9093	55.8541	80.3116	-24.6242	68.407	95.4373	-91.5878	60.2688	121.894	-85.2489	84.6885	134.826	-69.1162	50.9501	
202	1.68333	126.662	-25.4858	49.1134	98.915	-18.0649	26.1831	68.1964	-29.3041	6.97611	46.5722	-40.864	2.22978	88.6233	-59.6826	-16.1698	65.9544	-55.7581	-30.7019	42.0998	-51.5851	-45.2964	69.0865	-75.6605	0.349354	39.256	-70.9521	-15.0602	14.5	-64.1684	-29.3874	50.8781	-62.4273	25.4158	40.013	-32.8228	37.7335	61.4229	-14.9812	56.3525	45.4307	-67.4721	49.0738	47.6458	-34.2682	55.3017	74.6771	-25.2554	72.1676	102.653	-90.9358	58.5452	121.217	-83.7742	84.8556	134.126	-65.4588	50.3981	
203	1.69167	121.336	-18.1909	49.3303	91.9191	-13.2588	27.8057	63.0834	-30.0383	11.2864	41.6951	-42.4214	2.33275	86.3514	-53.5393	-15.2916	66.3749	-49.9452	-31.4833	39.1434	-45.9179	-47.7579	66.0682	-74.9706	-2.65714	41.0052	-70.7702	-15.8267	11.2196	-69.5075	-28.5473	49.2984	-66.6389	27.532	36.3595	-36.7586	40.0153	56.8661	-19.9039	63.7598	45.8024	-69.3241	45.934	46.3988	-39.0537	58.8361	69.5574	-30.1951	74.1192	105.34	-88.0174	54.3613	125.785	-82.0476	86.5615	134.655	-59.7655	47.6459	
204	1.7	112.751	-13.4323	58.6261	82.959	-13.5168	35.2418	56.6275	-27.1458	13.5378	37.7134	-41.0956	5.86628	82.1301	-50.0957	-13.0894	60.8554	-44.9761	-29.9982	33.1778	-46.2248	-43.4431	66.3655	-72.881	-1.20739	39.4877	-72.3278	-14.1774	12.7821	-70.1155	-30.8168	47.2421	-66.1896	25.9823	31.0787	-44.2536	45.356	51.234	-23.5815	66.2687	47.9571	-75.2414	46.2548	40.8603	-47.1018	65.765	66.0804	-35.8922	78.2313	105.893	-83.2365	54.0734	125.635	-77.452	81.8678	131.294	-51.0693	50.7617	
205	1.70833	103.533	-11.313	61.6233	74.1633	-7.82411	38.6463	49.6248	-26.2182	18.246	33.5397	-44.8165	8.95427	76.7531	-44.7477	-10.092	54.0208	-42.3206	-27.0631	33.0202	-43.1367	-38.0153	66.8407	-69.7938	1.81706	38.3484	-70.3647	-12.4367	7.04269	-72.7018	-29.2711	44.0038	-69.7989	28.5651	27.9699	-48.9503	43.8251	43.8773	-28.6391	68.6722	49.5932	-77.8178	46.5311	37.5594	-51.2234	66.0089	64.579	-39.0576	81.9383	105.636	-83.5167	53.2687	126.742	-71.0292	82.4153	127.225	-47.2303	52.2569	
206	1.71667	96.6662	-9.80653	64.2499	65.1167	-11.3287	41.9258	40.8465	-29.5965	19.7823	26.0223	-45.4543	10.3711	72.0473	-42.4865	-7.12921	49.9378	-40.121	-21.9323	24.1119	-43.1944	-35.382	64.9879	-67.5482	2.18213	35.7321	-70.7816	-11.064	5.77066	-71.2566	-26.7838	45.3871	-71.6406	29.6138	22.8715	-51.5235	49.9329	39.0201	-33.0119	77.2438	46.1575	-79.3083	48.0607	35.8645	-51.8793	68.1134	59.8923	-42.8252	84.0537	104.479	-76.4746	52.3165	120.929	-71.3139	82.0708	120.277	-43.3271	54.8249	
207	1.725	90.0842	-8.18586	70.658	59.6366	-13.4717	47.1764	35.1701	-29.3433	23.0339	20.0235	-44.9467	14.033	66.956	-38.3362	-4.96789	43.9244	-41.4566	-19.0189	19.5187	-42.401	-29.9397	56.5003	-65.6229	1.39073	32.3397	-69.7319	-9.34445	1.28428	-71.1616	-25.5139	43.0586	-71.7728	31.9371	18.9639	-53.5928	53.3297	31.3565	-36.7512	77.7356	44.6503	-80.483	50.0737	31.1768	-56.9651	74.6884	56.9806	-44.5774	86.2305	102.297	-75.5847	54.1296	120.908	-70.0983	87.0476	118.517	-39.6086	58.9108	
208	1.73333	85.006	-7.7189	71.1542	53.7382	-10.37	50.3007	31.7267	-31.4428	27.0144	16.3469	-49.0757	13.7504	64.4911	-37.0336	-1.95999	42.2998	-38.3238	-15.5353	11.3684	-43.3254	-30.3109	54.1255	-64.0661	2.84064	28.4173	-71.2311	-7.41385	-0.35269	-74.6462	-20.6113	39.7002	-70.3469	32.1977	17.5056	-56.9313	49.4836	28.1301	-38.3136	80.0148	37.925	-79.3134	52.2379	27.314	-60.9353	74.9234	53.3601	-45.653	87.7125	98.4237	-72.9751	55.8587	117.592	-67.3324	83.8469	112.248	-39.7366	56.996	
209	1.74167	82.5047	-5.84689	72.7212	51.2993	-13.0017	50.7053	29.7739	-31.4001	31.0663	14.0995	-51.4849	17.5465	63.1149	-37.8337	1.35816	37.422	-41.7768	-13.9781	13.6136	-45.9954	-25.8935	54.0792	-66.7955	7.82473	25.2815	-72.8276	-5.25639	-3.28444	-73.644	-19.3067	36.8737	-71.735	34.4141	13.7764	-56.7925	58.3677	29.1759	-38.2258	85.4357	37.3481	-80.6647	53.7268	28.2896	-56.4569	76.4981	53.5224	-45.6238	89.5484	95.3423	-77.6625	57.2597	113.913	-68.7288	87.7038	109.46	-41.0568	60.3339	
210	1.75	83.3886	-11.2164	74.6388	52.4339	-16.5401	50.6819	29.2898	-35.876	31.3955	13.4896	-49.6535	22.7878	59.6227	-41.371	-0.272891	38.389	-45.5415	-12.6438	9.95494	-47.3188	-29.041	48.7366	-70.5709	7.12487	23.789	-71.0689	-6.35793	-3.33568	-77.3232	-16.5274	37.0677	-74.9368	36.644	13.9831	-56.2357	55.9147	26.5528	-36.4455	81.5909	38.7658	-85.2199	56.1113	27.0824	-58.747	76.1279	53.6867	-47.2225	88.3979	95.2591	-75.0523	59.2426	116.052	-67.4376	89.7818	110.949	-40.1581	61.4113	
211	1.75833	82.096	-8.94814	69.9187	50.5148	-11.4687	49.1953	26.6351	-33.6698	28.2355	10.4846	-52.1453	19.3175	57.769	-46.0738	-0.946726	36.8102	-49.0875	-14.6757	9.03378	-52.7978	-28.8779	51.7988	-72.0334	8.75368	24.0634	-76.5754	-1.98855	-4.29228	-82.2642	-15.0629	32.9536	-73.751	38.0566	11.7188	-59.6009	58.8773	26.3372	-39.328	84.3327	34.5752	-85.022	58.4446	24.8363	-61.177	74.5889	53.7973	-47.73	91.0182	94.0756	-78.0881	58.6096	111.972	-69.9734	92.39	109.841	-44.586	59.8118	
